<svg viewBox="0 0 24 24" fill="none"
    xmlns="http://www.w3.org/2000/svg">
    <path d="M11 2C7.22876 2 5.34315 2 4.17157 3.12874C3 4.25748 3 6.07416 3 9.70753V17.9808C3 20.2867 3 21.4396 3.77285 21.8523C5.26947 22.6514 8.0768 19.9852 9.41 19.1824C10.1832 18.7168 10.5698 18.484 11 18.484C11.4302 18.484 11.8168 18.7168 12.59 19.1824C13.9232 19.9852 16.7305 22.6514 18.2272 21.8523C19 21.4396 19 20.2867 19 17.9808V13" stroke="currentColor" stroke-width="1.5" stroke-linecap="round" stroke-linejoin="round"/>
    <g clip-path="url(#clip0_4021_32)">
        <path d="M16.5833 6.95833C16.7802 7.22147 17.0313 7.4392 17.3197 7.59676C17.6081 7.75431 17.927 7.84801 18.2547 7.87148C18.5825 7.89496 18.9115 7.84766 19.2194 7.73281C19.5273 7.61796 19.8069 7.43823 20.0392 7.20583L21.4142 5.83083C21.8316 5.39861 22.0626 4.81973 22.0574 4.21887C22.0522 3.618 21.8112 3.04322 21.3863 2.61833C20.9614 2.19343 20.3866 1.95242 19.7857 1.9472C19.1849 1.94198 18.606 2.17297 18.1738 2.59041L17.3854 3.37416" stroke="currentColor" stroke-linecap="round" stroke-linejoin="round"/>
        <path d="M18.4167 6.04167C18.2198 5.77853 17.9687 5.5608 17.6803 5.40324C17.392 5.24569 17.0731 5.15199 16.7453 5.12852C16.4175 5.10505 16.0885 5.15234 15.7806 5.26719C15.4727 5.38204 15.1932 5.56177 14.9608 5.79417L13.5858 7.16917C13.1684 7.60139 12.9374 8.18027 12.9426 8.78113C12.9478 9.382 13.1889 9.95678 13.6137 10.3817C14.0386 10.8066 14.6134 11.0476 15.2143 11.0528C15.8152 11.058 16.394 10.827 16.8262 10.4096L17.61 9.62584" stroke="currentColor" stroke-linecap="round" stroke-linejoin="round"/>
    </g>
    <defs>
        <clipPath id="clip0_4021_32">
            <rect width="11" height="11" fill="white" transform="translate(12 1)"/>
        </clipPath>
    </defs>
</svg>
