<svg width="24" height="24" viewBox="0 0 24 24" fill="none"
    xmlns="http://www.w3.org/2000/svg">
    <path d="M11 2C7.22876 2 5.34315 2 4.17157 3.12874C3 4.25748 3 6.07416 3 9.70753V17.9808C3 20.2867 3 21.4396 3.77285 21.8523C5.26947 22.6514 8.0768 19.9852 9.41 19.1824C10.1832 18.7168 10.5698 18.484 11 18.484C11.4302 18.484 11.8168 18.7168 12.59 19.1824C13.9232 19.9852 16.7305 22.6514 18.2272 21.8523C19 21.4396 19 20.2867 19 17.9808V11" stroke="currentColor" stroke-width="1.5" stroke-linecap="round" stroke-linejoin="round"/>
    <g clip-path="url(#clip0_4021_25)">
        <path d="M20.587 3.40601C20.8514 3.14172 20.9999 2.78324 21 2.40943C21 2.03563 20.8516 1.67711 20.5873 1.41276C20.323 1.1484 19.9645 0.999864 19.5907 0.999817C19.2169 0.99977 18.8584 1.14822 18.594 1.41251L11.921 8.08701C11.8049 8.20276 11.7191 8.34527 11.671 8.50201L11.0105 10.678C10.9976 10.7212 10.9966 10.7672 11.0077 10.8109C11.0188 10.8547 11.0415 10.8946 11.0734 10.9265C11.1054 10.9584 11.1453 10.981 11.1891 10.992C11.2329 11.003 11.2788 11.002 11.322 10.989L13.4985 10.329C13.6551 10.2814 13.7976 10.1961 13.9135 10.0805L20.587 3.40601Z" stroke="currentColor" stroke-linecap="round" stroke-linejoin="round"/>
    </g>
    <defs>
        <clipPath id="clip0_4021_25">
            <rect width="12" height="12" fill="white" transform="translate(10)"/>
        </clipPath>
    </defs>
</svg>
